<svg width="1920" height="756" viewBox="0 0 1920 756" fill="none" xmlns="http://www.w3.org/2000/svg">
<g opacity="0.5">
<mask id="mask0_1_493" style="mask-type:alpha" maskUnits="userSpaceOnUse" x="0" y="0" width="1920" height="756">
<rect y="0.0012207" width="1920" height="755.999" fill="url(#paint0_linear_1_493)"/>
</mask>
<g mask="url(#mask0_1_493)">
<g opacity="0.18">
<path fill-rule="evenodd" clip-rule="evenodd" d="M703.733 424.19C703.623 402.902 659.935 378.962 641.273 366.62C604.373 342.208 565.995 319.666 527.973 296.763C489.951 273.86 451.827 251.02 415.57 225.876C392.029 209.554 364.368 191.171 348.402 167.865C314.39 118.198 421.626 125.573 449.404 124.487C520.069 121.712 601.123 122.978 667.36 97.1141C706.901 81.6738 722.669 55.7787 714.176 18.0379C711.439 5.76396 703.336 -8.36012 710.2 -20.3175C717.529 -33.0881 734.391 -40.4574 748.386 -45.3993C799.431 -63.4036 858.12 -65.4896 912.129 -67.7495C970.366 -70.2328 1029.15 -69.5064 1086.98 -69.6989C1111.5 -69.7796 1137.11 -77.7698 1160.46 -84.2638C1191.07 -92.7754 1221.31 -102.336 1251.67 -111.581C1318.46 -131.87 1387.27 -153.239 1457.93 -158.392C1502.18 -161.62 1550.54 -157.256 1584.92 -129.175C1602.18 -115.076 1611.21 -94.1164 1621.19 -75.4975C1633.27 -53.0045 1644.87 -30.2943 1657.73 -8.15523C1699.15 63.148 1758.29 132.825 1854.28 136.326C1868.8 136.854 1883.07 135.134 1897.52 134.811C1906.72 134.613 1914.92 136.63 1918.34 145.366C1926.94 167.275 1899.9 201.862 1888.82 219.245C1864.54 257.296 1837.17 293.64 1811.53 330.928C1794.56 355.588 1765.2 389.287 1764.89 419.248C1764.61 445.944 1803.76 465.24 1825.07 478.389C1845.04 490.7 1881.22 507.929 1883.41 532.973C1884.47 545.117 1875.64 555.181 1866.42 562.991C1850.27 576.649 1831.65 586.285 1817.12 601.868C1793.28 627.434 1773.37 662.61 1776.6 697.061C1778.85 720.932 1793.86 736.565 1812.96 751.508C1820.99 757.791 1827.5 762.236 1827.93 772.437C1828.61 788.634 1821.62 805.776 1815.86 820.794C1795.25 874.54 1765.97 926.51 1733.4 975.035C1717.13 999.285 1699.55 1023.46 1677.97 1044.15C1663.84 1057.73 1644.78 1073.9 1623.22 1073.88C1598.26 1073.88 1571.86 1065.71 1547.6 1059.6C1502.28 1048.18 1457.52 1034.98 1412.94 1021.44C1309.83 990.115 1207.69 956.25 1106.52 919.848C1035.26 894.164 962.49 868.443 895.492 834.297C882.427 827.591 870.094 819.773 858.661 810.947C846.446 801.678 831.287 797.531 815.917 794.439C720.52 775.249 616.007 789.982 520.213 799.22C495.898 801.56 471.583 803.913 447.2 805.552C426.239 806.961 401.144 811.003 380.771 804.931C340.628 792.98 375.721 748.932 390.557 730.983C442.793 667.788 510.187 614.322 572.654 559.738C602.354 533.743 632.281 507.817 660.366 480.351C674.99 466.072 703.829 442.852 703.733 424.19Z" stroke="white"/>
<path fill-rule="evenodd" clip-rule="evenodd" d="M721.733 420.601C705.723 398.075 677.632 381.425 654.314 365.756C620.758 343.198 586.148 321.895 552.058 299.976C519.824 279.249 487.521 258.287 457.67 234.749C439.468 220.395 416.629 203.23 408.008 182.001C389.305 135.986 489.918 142.967 514.756 141.764C576.506 138.785 646.514 138.102 703.641 113.875C739.313 98.7461 753.967 73.6567 746.359 38.8245C743.73 26.7732 738.991 16.4842 744.99 4.49492C751.927 -9.38088 767.883 -18.0315 782.51 -24.1379C828.331 -43.2699 882.493 -47.3345 932.162 -50.7166C983.475 -54.2104 1036.94 -56.6741 1086.6 -54.1173C1106.46 -53.0996 1129.32 -58.877 1148.97 -63.3079C1179.21 -70.1341 1209.15 -78.009 1239.24 -85.3317C1300.39 -100.225 1363.13 -114.573 1426.75 -116.205C1472.68 -117.384 1520.57 -110.992 1558.78 -86.2873C1597.51 -61.2352 1614.69 -22.4003 1636.17 14.517C1673.26 78.3419 1723.35 155.943 1809.16 169.428C1822.17 171.476 1834.67 170.365 1847.67 170.868C1854.36 171.122 1861.96 171.929 1865.35 177.905C1874.15 193.419 1850.04 221.785 1841.93 233.669C1819.51 266.509 1794.3 297.742 1770.8 329.949C1752.14 355.523 1728.49 383.938 1721.27 414.253C1712.51 451.04 1769.74 477.215 1789.87 503.118C1824.76 548.034 1758.65 573.626 1726.06 595.042C1688.64 619.629 1657.75 664.483 1691.3 702.523C1704.13 717.069 1719.92 725.739 1725.65 744.722C1734.62 774.409 1727.84 808.336 1720.56 837.682C1709.61 881.798 1692.27 925.436 1668.7 965.307C1651.81 993.853 1623.79 1038.61 1582.77 1035.26C1555.15 1033.02 1527.07 1024.83 1500.18 1017.6C1459.91 1006.77 1420.15 994.424 1380.6 981.603C1289.31 952.089 1199.03 919.547 1110.51 883.753C1050.12 859.321 881.657 759.479 868.982 755.917C831.187 745.305 788.215 747.173 749.249 748.817C697.416 751.002 645.843 756.661 594.311 761.905C569.781 764.387 545.127 767.422 520.467 768.644C502.916 769.513 479.865 770.258 464.491 761.005C434.482 742.953 467.915 701.648 481.741 684.173C524.097 630.6 577.677 584.207 627.914 536.771C652.568 513.481 677.597 490.229 699.977 465.071C709.003 454.912 731.629 434.514 721.733 420.601Z" stroke="white"/>
<path fill-rule="evenodd" clip-rule="evenodd" d="M743.885 409.049C700.159 363.971 639.809 330.445 587.723 292.797C561.581 273.896 535.274 254.479 512.726 231.965C500.997 220.258 486.351 205.453 484.092 189.134C478.053 145.477 568.736 151.381 595.878 149.723C648.354 146.508 707.636 144.068 755.244 121.79C784.33 108.171 798.655 85.8183 793.218 56.4388C790.808 43.4033 787.056 32.3294 793.218 19.5297C799.463 6.56254 812.472 -2.58713 825.646 -9.44628C863.504 -29.1733 910.55 -35.4801 953.173 -40.179C1003.17 -45.6522 1053.55 -47.7891 1103.9 -46.5726C1147.99 -45.5236 1191.88 -57.3238 1234.93 -65.1017C1291.97 -75.3997 1350.04 -84.3942 1408.4 -83.0347C1454.5 -81.9547 1500.96 -73.4692 1540.36 -50.9178C1580.4 -27.9505 1604.48 6.42592 1626.18 43.5212C1658.99 99.5986 1699.88 174.745 1771.87 196.043C1782.34 199.146 1792.09 199.488 1802.89 200.028C1808.14 200.288 1814.91 200.369 1817.51 205.329C1823.77 217.272 1800.63 240.425 1794.18 248.495C1773.57 274.256 1751.22 298.855 1730.1 324.275C1710.38 348.005 1688.9 372.736 1676.65 400.545C1657.16 444.834 1719.48 470.731 1717.73 512.935C1716.65 539.137 1688.98 557.926 1667.07 570.925C1640.09 586.909 1601.25 597.418 1587.74 626.586C1577.68 648.312 1593.47 660.956 1605.62 677.443C1626.22 705.376 1627.62 743.241 1625.48 775.576C1622.59 819.269 1611.3 863.609 1592.08 903.77C1583.37 921.976 1572.7 940.915 1556.99 955.056C1542.28 968.308 1528.35 971.704 1508.69 968.991C1448.49 960.673 1387.7 937.489 1329.98 916.781C1257.45 890.76 1185.91 862.032 1116.52 829.71C1069.2 807.668 1020.81 784.347 979.275 753.893C968.449 745.954 957.364 737.326 949.449 726.854C943.464 718.983 940.924 712.484 930.838 707.99C900.944 694.675 859.361 698.157 827.33 699.541C776.114 701.745 725.144 707.611 674.243 712.893C644.54 715.997 588.585 725.761 564.867 702.341C544.394 682.117 569.099 647.635 581.718 629.82C613.639 584.767 654.701 545.226 692.798 504.512C710.259 485.853 728.403 467.05 742.823 446.305C746.507 441.017 752.409 434.009 753.423 427.584C754.559 420.222 749.253 414.604 743.885 409.049Z" stroke="white"/>
<path fill-rule="evenodd" clip-rule="evenodd" d="M747.644 419.543C707.24 379.685 658.563 346.941 615.187 309.643C595.738 292.92 576.098 275.377 561.279 254.976C553.308 244.006 544.843 230.196 547.041 216.56C553.349 177.424 627.932 180.959 658.063 178.666C702.836 175.299 754.273 171.907 793.862 150.805C819.796 136.983 829.52 116.57 824.678 90.2424C819.481 62.002 831.102 41.5019 857.549 25.7479C890.708 6.01188 932.564 -2.03286 971.064 -7.74804C1017.45 -14.6008 1064.42 -17.6385 1111.41 -16.824C1157.11 -16.0289 1201.38 -22.9741 1246.78 -27.4903C1306.96 -33.4726 1369.08 -36.4234 1428.59 -24.1606C1480.41 -13.4819 1527.21 10.0498 1562.29 46.4405C1598.93 84.4217 1617.08 132.274 1646.83 174.293C1665.39 200.502 1691.27 235.172 1725.95 245.36C1737.51 248.758 1758.59 244.173 1749.35 260.89C1744.07 270.451 1734.19 278.837 1726.39 286.652C1713.77 299.281 1700.74 311.563 1687.91 324.018C1660.57 350.569 1631.3 377.685 1610.81 409.125C1584.99 448.709 1623.37 479.173 1618.69 519.31C1616.18 540.909 1599.62 558.148 1582.1 571.691C1570.77 580.462 1558.37 588.06 1545.7 595.148C1532.48 602.553 1516.83 608.193 1505.3 617.766C1488.86 631.389 1496 647.516 1499.08 665.128C1504.51 696.078 1505.7 727.517 1502.63 758.732C1498.88 796.993 1490.08 836.347 1471.54 871.117C1464.33 884.653 1455.19 899.003 1441.63 908.079C1428.06 917.155 1414.03 916.534 1398.48 913.8C1352.37 905.724 1306.36 886.933 1262.62 869.122C1207.88 846.827 1154.21 821.91 1102.96 793.564C1067.58 773.996 1032.09 752.856 1002.49 726.324C993.882 718.602 985.691 710.334 979.069 701.102C974.522 694.772 972.084 686.603 965.496 681.845C944.884 666.991 903.5 671.427 879.326 672.29C831.081 674.011 783.596 682.192 735.413 684.18C709.116 685.267 667.931 688.001 648.62 667.693C630.459 648.603 646.908 618.536 657.762 600.142C679.094 563.975 707.753 531.753 733.441 498.133C744 484.298 755.574 469.824 762.415 454.026C768.496 439.949 757.998 429.762 747.644 419.543Z" stroke="white"/>
<path fill-rule="evenodd" clip-rule="evenodd" d="M757.581 420.194C725.42 385.121 686.65 353.987 654.257 318.343C635.296 297.469 602.643 262.377 617.307 232.949C633.394 200.612 689.469 199.731 721.883 197.126C760.461 194.024 805.766 189.787 838.782 169.595C849.224 163.212 858.119 154.763 861.889 143.635C865.927 131.725 861.513 121.303 860.938 109.381C859.734 84.369 876.197 64.289 897.984 50.4992C928.776 31.0024 967.279 21.7844 1003.65 15.3578C1044.85 8.10932 1086.74 4.53576 1128.71 4.68823C1168.82 4.81229 1208.51 4.00589 1248.66 3.07541C1301.17 1.83475 1354.42 3.83839 1405.36 16.4868C1455.53 28.9553 1501.15 52.323 1536.99 86.6952C1571.95 120.236 1595.53 161.233 1616.19 202.994C1627.91 226.696 1647.72 262.117 1675.67 274.089C1688.11 279.418 1700.31 279.052 1687.09 292.91C1670.44 310.36 1648 324.36 1628.72 339.285C1600.91 360.823 1572.39 382.783 1549.04 408.39C1534.13 424.741 1527.49 440.609 1528.52 461.781C1529.31 477.909 1532.91 493.87 1531.09 510.061C1526.83 548.062 1493.83 574.122 1464.65 598.389C1445.88 613.996 1428.74 625.9 1419.08 648.102C1407.65 674.341 1402.85 702.889 1395.22 730.134C1386.83 760.052 1377.14 791.173 1358.83 817.525C1342.53 840.986 1322.71 851.506 1293.04 845.185C1246.76 835.334 1201.15 811.067 1160.06 788.618C1118.25 765.777 1077.15 740.096 1042.5 708.701C1023.79 691.748 1011.02 671.842 994.41 653.629C973.513 630.764 926.237 639.423 898.141 641.359C851.502 644.572 704.749 668.616 718.29 590.74C723.942 558.235 746.201 528.236 762.48 499.553C769.227 487.648 778.991 473.362 780.517 459.721C782.18 444.865 767.249 430.752 757.581 420.194Z" stroke="white"/>
<path fill-rule="evenodd" clip-rule="evenodd" d="M774.563 423.173C749.987 391.389 720.575 361.363 699.487 327.034C685.807 304.803 672.373 275.099 690.02 251.576C709.938 225.031 753.858 218.843 786.129 215.461C819.379 211.979 859.072 209.049 886.247 188.922C894.893 182.51 902.02 173.865 903.347 163.512C904.626 153.582 901.015 143.652 902.212 133.541C904.893 110.838 920.071 92.1315 939.64 78.5641C997.527 38.4268 1083.68 29.5018 1153.53 28.4529C1188.49 27.9316 1224.47 30.6687 1259.65 32.6299C1305.31 35.1746 1351.03 40.6362 1394.58 53.8002C1487.16 81.779 1549.21 143.831 1592.55 221.046C1606.19 245.351 1616.62 271.648 1638 291.18C1649.02 301.265 1646.61 308.508 1635.35 317.706C1617.73 332.08 1596.25 343.066 1576.7 355.063C1548.89 372.125 1520.5 389.441 1495.91 409.879C1478.96 423.967 1466.92 437.541 1463.27 458.668C1460.67 473.731 1461.27 489.08 1459.71 504.236C1456.73 533.028 1446.51 561.602 1428.44 585.485C1414.07 604.415 1396.97 621.619 1379.3 638.023C1356.32 659.379 1336.89 681.077 1319.44 706.424C1296.31 739.977 1263.8 801.868 1209.31 785.489C1149.22 767.415 1092.89 721.494 1054.33 676.999C1041.39 662.06 1030.76 643.739 1013.29 632.722C987.151 616.257 960.625 616.834 929.531 616.902C882.977 616.995 781.677 626.162 780.582 562.906C780.151 537.844 792.108 514.148 797.833 490.042C804.29 463.043 791.348 444.833 774.563 423.173Z" stroke="white"/>
<path fill-rule="evenodd" clip-rule="evenodd" d="M792.867 426.006C768.558 384.582 714.047 316.514 755.507 270.45C777.407 246.107 816.143 236.959 848.637 231.507C874.787 227.097 906.324 225.441 926.082 206.748C940.604 193.004 934.157 173.002 939.721 155.798C946.627 134.468 962.477 117.016 981.954 103.898C1036.38 67.2372 1112.06 55.9865 1177.54 53.5924C1245.54 51.1116 1320.46 62.7158 1384.45 85.0373C1464.24 112.879 1524.01 165.597 1565.81 232.357C1573.53 244.68 1580.53 257.327 1587.94 269.799C1592.91 278.166 1600.29 286.26 1604.21 295.06C1610.74 309.735 1603.05 321.73 1590.72 331.293C1572.98 345.062 1551.19 354.862 1530.96 365.194C1503.31 379.335 1475.04 393.222 1449.31 409.813C1432.02 420.976 1413.93 433.002 1407.74 452.372C1403.52 465.582 1402.64 479.574 1402.79 493.256C1403.12 522.592 1401.43 546.316 1386.33 573.183C1361.48 617.293 1323.28 656.956 1282.92 689.957C1251.25 715.857 1201.13 756.091 1154.99 738.774C1113.58 723.269 1089.36 686.155 1062.08 656.149C1048.82 641.562 1033.92 628.24 1016.41 617.863C994.342 604.783 973.564 599.294 947.414 597.155C903.401 593.551 837.037 592.615 823.431 544.734C818.408 527.064 821.275 508.762 818.641 490.862C815.198 467.195 805.131 446.901 792.867 426.006Z" stroke="white"/>
<path fill-rule="evenodd" clip-rule="evenodd" d="M818.143 427.54C800.833 382.214 778.092 325.091 819.901 284.807C840.152 265.292 868.638 254.383 896.208 246.23C915.953 240.387 947.304 238.667 959.41 220.705C968.301 207.486 969.532 189.25 977.575 175.087C988.628 155.615 1005.37 139.577 1025.01 127.023C1076.19 94.3072 1142.83 81.6656 1203.62 78.0457C1335.68 70.1913 1470.06 132.747 1540.73 235.668C1561.81 266.347 1589.01 299.001 1554.95 330.344C1517.77 364.537 1461.77 380.556 1417.39 404.852C1400.44 414.129 1378.83 425.28 1369.37 442.076C1363.68 452.172 1363.29 464.838 1363.03 475.952C1362.35 504.259 1359.76 529.716 1347.21 556.13C1327.83 596.948 1296.92 634.606 1261.89 665.452C1231.35 692.35 1187.79 723.96 1143.43 704.569C1109.42 689.667 1087.85 658.039 1061.42 634.724C1032.01 608.757 995.638 591.26 955.696 582.71C916.842 574.415 874.226 568.821 853.749 533.578C846.725 521.489 839.386 505.836 836.753 492.456C832.502 470.394 826.279 448.684 818.143 427.54Z" stroke="white"/>
<path fill-rule="evenodd" clip-rule="evenodd" d="M846.328 427.86C838.319 382.09 837.429 334.365 874.637 298.292C892.002 281.463 913.953 269.507 936.15 258.674C952.482 250.703 969.347 243.98 981.544 230.913C992.845 218.814 1001.43 204.766 1012.35 192.351C1026.74 175.898 1043.96 161.655 1063.34 150.169C1111.94 121.434 1171.06 107.994 1227.62 103.332C1255 101.066 1284.69 99.8865 1311.89 106.063C1338.15 112.023 1364.12 121.446 1388.27 132.434C1439.6 155.769 1484.09 189.942 1516.35 233.148C1538.46 262.784 1550.42 291.6 1521.78 321.664C1489.49 355.552 1438.87 374.25 1397.15 396.244C1368.53 411.328 1336.45 426.115 1331.11 458.172C1326.85 483.68 1323.39 507.89 1312.38 532C1295.99 567.564 1271.89 599.78 1241.51 626.737C1213.73 651.294 1178.58 672.134 1138.84 659.017C1107.36 648.606 1082.93 625.284 1055.42 608.61C1024.76 589.987 991.079 579.719 955.61 571.463C923.734 564.014 893.72 552.567 873.117 528.263C868.901 523.297 864.473 517.89 861.221 512.334C857.074 505.245 857.395 498.218 856.581 490.272C854.459 469.302 849.948 448.575 846.328 427.86Z" stroke="white"/>
<path fill-rule="evenodd" clip-rule="evenodd" d="M877.405 424.119C878.089 380.645 889.617 339.558 921.19 305.677C934.688 291.184 950.807 279.246 965.66 265.965C977.619 255.258 988.921 245.31 1002.67 236.487C1035.29 215.595 1061.8 188.56 1096.47 169.957C1142.75 145.086 1195.75 131.339 1248.35 125.842C1274.03 123.156 1300.56 122.217 1326.55 125.252C1348.87 127.857 1370.24 137.003 1390.06 146.361C1428.92 164.691 1466.66 190.743 1491.89 223.703C1547.51 296.37 1437.84 349.202 1381.55 380.141C1355.66 394.373 1316.1 410.857 1305.5 439.048C1297.92 459.187 1293.3 479.668 1283.54 499.185C1257.31 551.601 1204.08 613.25 1133.14 605.042C1102.78 601.535 1075.12 587.291 1046.78 577.728C1017.6 567.879 987.484 562.389 957.156 556.364C928.812 550.737 906.221 542.728 887.913 521.258C879.163 511.005 879.936 498.732 879.156 486.153C877.884 465.492 877.097 444.712 877.405 424.119Z" stroke="white"/>
<path fill-rule="evenodd" clip-rule="evenodd" d="M905.704 418.551C917.101 352.93 959.429 281.291 1021.67 243.182C1094.88 198.353 1174.19 160.604 1261.66 149.752C1302.21 144.72 1346.63 142.244 1384.9 158.699C1414.02 171.214 1447.85 189.921 1463.88 216.229C1503.09 280.577 1415.87 331.803 1366.18 361.573C1339.43 377.6 1305.38 393.217 1285.21 416.621C1273.51 430.19 1267.54 448.141 1258.1 463.044C1229.47 508.208 1182.36 544.636 1123.67 551.15C1096.53 554.16 1069.2 550.437 1042.27 547.477C1014.7 544.449 986.791 542.805 959.394 538.58C937.525 535.204 911.752 529.49 903.697 508.264C893.54 481.515 901.054 445.348 905.704 418.551Z" stroke="white"/>
<path fill-rule="evenodd" clip-rule="evenodd" d="M933.45 408.009C950.072 346.314 985.269 286.135 1044.44 249.305C1075.82 229.775 1112.24 216.293 1147.21 202.973C1186.85 187.877 1228.27 176.159 1270.57 170.347C1323.24 163.106 1408.54 156.58 1436.06 211.009C1463.37 265.034 1394.35 312.85 1353.54 340.098C1327.37 357.554 1299.37 373.575 1274.37 392.658C1260.81 403.004 1250.37 414.958 1238.9 427.091C1207.19 460.711 1161.99 487.327 1115.92 501.535C1071.26 515.308 1016.02 521.406 968.887 516.854C948.549 514.898 934.012 508.297 927.862 489.531C919.338 463.444 926.579 433.494 933.45 408.009Z" stroke="white"/>
<path fill-rule="evenodd" clip-rule="evenodd" d="M961.025 391.392C977.537 337.073 1013.15 287.459 1065.1 254.858C1123.34 218.311 1198.32 198.002 1267.24 187.675C1303.88 182.19 1383.26 167.318 1401.94 209.882C1420.61 252.446 1366.63 294.391 1335.56 317.482C1297.85 345.464 1257.2 372.482 1216.59 397.589C1181.31 419.418 1143.66 441.736 1105.45 458.593C1083.9 468.156 1061.45 475.964 1038.36 481.925C1021.27 486.303 999.533 492.834 981.612 489.575C936.411 481.344 953.128 417.365 961.025 391.392Z" stroke="white"/>
<path fill-rule="evenodd" clip-rule="evenodd" d="M995.061 375.126C1031.29 272.402 1146.08 221.88 1256.6 204.27C1282.28 200.182 1354.27 185.444 1368.63 216.824C1382.54 247.249 1338.3 283.331 1317.59 300.426C1253.4 353.398 1174.11 392.674 1098.97 431.584C1075.52 443.73 1033.22 470.085 1004.13 457.928C972.537 444.703 987.556 396.427 995.061 375.126Z" stroke="white"/>
<path fill-rule="evenodd" clip-rule="evenodd" d="M1032.17 355.354C1063.68 279.705 1155.32 236.318 1239.57 222.014C1260.21 218.515 1312.62 207.618 1328.25 228.729C1342.71 248.257 1308.2 276.553 1295.28 287.797C1266.53 312.836 1232.46 333.462 1198.8 353.288C1167.68 371.631 1136.22 390.433 1103.47 405.947C1086.22 414.113 1053.87 431.537 1034.27 418.928C1013.16 405.363 1025.17 372.152 1032.17 355.354Z" stroke="white"/>
<path fill-rule="evenodd" clip-rule="evenodd" d="M1073.06 333.252C1097.08 283.85 1161.39 251.77 1218.13 241.11C1233.4 238.248 1266.39 230.823 1279.27 244.016C1291.13 256.166 1272.02 273.979 1263.54 282.205C1225.95 318.668 1170.91 351.239 1120.48 371.243C1107.8 376.272 1085.01 386.144 1071.97 375.993C1058.59 365.568 1067.55 344.596 1073.06 333.252Z" stroke="white"/>
<path fill-rule="evenodd" clip-rule="evenodd" d="M1116.45 312.501C1129.98 287.97 1165.35 269.462 1194.64 263.57C1215.26 259.428 1240.04 263.006 1222.07 284.36C1204.22 305.55 1171.1 324.904 1143.03 333.485C1121.61 340.028 1104.83 333.572 1116.45 312.501Z" stroke="white"/>
<path fill-rule="evenodd" clip-rule="evenodd" d="M19.1243 482.406C18.2565 433.942 -10.1376 383.573 3.88514 334.191C15.3999 293.633 73.3702 290.247 108.147 271.872C135.782 257.273 151.466 231.413 166.411 206.601C179.839 184.325 191.901 161.38 206.047 139.47C215.204 125.306 230.928 97.4922 250.787 96.9898C269.798 96.5061 287.231 118.18 298.274 130.993C312.673 147.693 325.438 165.498 339.42 182.465C362.982 211.085 391.253 232.269 423.625 252.319C460.463 275.132 497.909 297.166 535.964 318.42C563.982 334.116 592.192 349.694 619.123 366.941C636.016 377.762 673.301 398.066 673.472 418.016C673.554 427.535 663.611 438.078 656.907 445.687C645.563 458.568 632.633 470.344 619.663 481.867C595.506 503.33 570.324 523.82 545.415 544.557C513.085 571.472 482.203 597.946 453.782 628.501C424.397 660.128 396.324 692.798 367.677 725.021C348.276 746.85 328.896 771.365 300.912 784.76C265.862 801.504 237.092 783.848 201.646 783.643C171.154 783.464 173.402 719.365 169.527 701.542C165.639 683.502 157.069 666.708 153.748 648.625C149.607 626.051 149.552 602.957 148.534 580.142C147.297 552.235 146.805 525.668 113.928 515.026C95.2176 508.98 74.9762 507.708 55.6095 504.087C43.0628 501.736 19.3977 497.718 19.1243 482.406Z" stroke="white"/>
<path fill-rule="evenodd" clip-rule="evenodd" d="M34.1133 473.785C30.9171 433.16 12.0344 381.162 29.8905 339.226C45.1459 303.39 92.8558 298.744 124.982 279.919C151.503 264.391 163.309 238.983 176.565 214.021C187.201 193.997 197.515 173.781 209.588 154.397C218.485 140.112 232.071 115.995 250.57 113.039C267.201 110.38 285.037 131.671 294.372 142.503C307.992 158.316 319.64 175.489 331.672 192.302C352.814 221.835 374.461 248.392 405.403 270.087C436.482 291.875 470.483 308.166 504.847 325.121C531.731 338.388 558.477 352.039 584.02 367.355C603.046 378.758 630.402 393.354 639.107 413.688C645.999 429.775 611.047 456.469 600.74 465.891C579.523 485.263 557.04 503.448 534.516 521.522C507.058 543.545 478.724 562.805 454.475 587.928C411.104 632.845 374.851 688.78 319.045 722.164C285.386 742.3 247.928 747.448 210.491 744.436C195.667 743.244 192.108 724.257 190.24 713.183C187.133 694.786 186.743 676.073 184.354 657.602C182.116 640.311 177.147 623.883 173.143 606.927C169.092 589.748 167.956 572.146 164.972 554.849C163.124 544.111 161.296 531.614 153.214 522.981C144.85 514.044 131.052 510.299 118.993 507.454C96.3463 502.162 36.3718 502.454 34.1133 473.785Z" stroke="white"/>
<path fill-rule="evenodd" clip-rule="evenodd" d="M53.4089 456.778C48.0336 419.487 40.5083 373.041 62.4065 338.684C80.3058 310.591 118.48 304.531 145.747 286.227C168.426 271.005 176.992 246.796 188.249 224.299C197.487 205.845 206.772 187.312 217.967 169.752C226.458 156.434 237.4 138.378 254.259 133.732C268.673 129.762 284.956 147.546 292.947 156.397C306.553 171.482 317.646 188.385 328.663 205.064C346.686 232.356 363.271 261.509 388.921 283.709C413.846 305.251 443.454 317.967 473.618 332.264C496.721 343.218 519.681 354.594 541.449 367.657C558.163 377.68 578.877 389.559 587.587 406.238C595.119 420.622 575.782 437.649 566.12 447.796C550.165 464.544 532.458 479.908 514.997 495.334C496.153 511.976 475.282 527.328 457.047 544.38C418.701 580.263 388.065 619.991 340.804 647.482C310.196 665.29 269.008 681.467 232.826 678.558C206.806 676.461 208.518 624.222 206.018 607.53C201.91 580.238 193.974 551.562 181.368 526.423C170.542 504.881 144.816 498.237 121.151 493.405C106.326 490.372 90.7892 488.735 76.4506 484.045C59.8524 478.612 55.6617 472.409 53.4089 456.778Z" stroke="white"/>
<path fill-rule="evenodd" clip-rule="evenodd" d="M71.4044 439.299C68.2039 407.771 68.9235 370.489 89.6547 343.217C107.823 319.328 140.17 313.039 163.177 294.221C181.132 279.539 188.184 255.601 197.841 236.185C209.642 212.446 226.179 168.601 255.95 159.668C283.644 151.363 312.606 204.415 322.632 220.235C338.504 245.274 351.779 272.733 371.03 295.857C387.608 315.764 409.819 326.768 433.395 338.594C463.453 353.699 509.089 371.609 525.16 401.046C537.14 422.981 498.186 455.591 484.883 470.789C470.971 486.665 460.492 505.483 446.135 520.799C423.478 544.968 386.765 564.427 356.453 579.276C326.984 593.721 288.715 609.709 255.285 608.757C233.313 608.135 229.133 577.354 224.445 562.318C217.729 540.943 208.799 521.788 189.617 507.25C170.092 492.45 147.078 485.477 122.886 479.374C110.468 476.264 96.3024 473.837 85.1932 467.554C72.919 460.717 72.638 451.417 71.4044 439.299Z" stroke="white"/>
<path fill-rule="evenodd" clip-rule="evenodd" d="M93.3295 421.126C93.5072 393.889 100.372 364.844 120.729 343.834C137.684 326.334 164.222 320.484 180.453 302.594C193.309 288.43 199.853 268.547 208.46 252.099C218.987 231.943 233.872 196.732 260.048 189.737C285.597 182.928 308.194 221.71 317.989 237.056C332.335 259.558 343.947 283.41 358.422 305.85C369.762 323.455 383.629 334.802 402.093 346.149C423.768 359.477 454.009 374.241 465.588 396.291C473.936 412.256 453.729 437.766 446.393 451.831C441.474 461.277 436.973 470.872 434.5 481.111C432.574 489.084 432.382 496.463 426.801 503.31C412.75 520.531 381.942 522.778 361.039 528.455C333.277 535.989 303.822 544.55 274.769 546.184C256.913 547.205 247.8 532.281 237.608 521.782C225.565 509.37 208.515 500.444 193.623 491.078C173.97 478.697 152.582 470.996 130.456 463.109C120.476 459.55 108.754 456.059 101.021 448.983C92.947 441.647 93.2681 430.957 93.3295 421.126Z" stroke="white"/>
<path fill-rule="evenodd" clip-rule="evenodd" d="M116.36 404.957C119.888 382.081 130.884 360.217 149.456 344.046C163.692 331.63 182.6 324.64 194.026 309.722C204.673 295.817 212.092 280.005 220.886 265.138C230.192 249.419 244.019 223.148 265.483 218.871C288.616 214.264 306.436 240.766 316.303 255.453C328.769 274.015 338.24 293.985 349.386 313.186C357.783 327.498 368.494 340.586 381.162 352.016C394.448 364.066 412.467 375.606 419.188 392.175C425.131 406.85 414.012 424.605 412.05 439.485C409.95 455.383 413.629 472.082 401.991 485.733C377.989 513.886 317.753 508.665 283.317 509.267C249.339 509.888 222.021 492.661 194.525 476.272C176.363 465.452 157.449 456.289 138.829 446.208C119.847 435.921 113.255 425.089 116.36 404.957Z" stroke="white"/>
<path fill-rule="evenodd" clip-rule="evenodd" d="M137.758 391.863C148.192 358.723 180.781 341.109 204.079 316.064C223.141 295.56 237.434 253.1 269.538 247.484C305.986 241.109 327.806 297.368 340.477 319.077C354.538 343.153 379.58 362.736 389.994 388.222C395.468 401.599 390.767 414.081 387.853 427.452C384.657 442.133 382.256 457.144 371.226 468.961C349.516 492.217 307.115 492.055 276.578 492.695C244.968 493.36 217.004 477.423 191.818 461.518C165.106 444.674 127.07 425.849 137.758 391.863Z" stroke="white"/>
<path fill-rule="evenodd" clip-rule="evenodd" d="M155.237 382.877C166.994 359.265 191.701 340.07 211.75 321.949C228.483 306.842 246.485 276.43 271.999 274.262C301.985 271.705 320.159 304.18 331.958 324.092C343.571 343.658 360.304 364.317 366.734 385.792C373.44 408.162 355.583 438.29 338.553 454.119C319.559 471.771 288.484 478.293 261.819 477.589C233.9 476.872 208.283 462.284 187.139 447.153C164.534 430.977 141.563 410.287 155.237 382.877Z" stroke="white"/>
<path fill-rule="evenodd" clip-rule="evenodd" d="M171.45 378.432C182.681 358.793 202.149 342.18 220.099 327.362C233.951 315.921 254.392 296.468 274.377 295.992C296.363 295.466 314.996 311.794 323.736 328.531C332.352 345.039 341.431 365.735 342.721 383.846C345.522 423.284 288.498 467.461 245.679 463.866C205.081 460.457 149.057 417.56 171.45 378.432Z" stroke="white"/>
<path fill-rule="evenodd" clip-rule="evenodd" d="M186.448 376.266C201.942 350.679 239.576 314.2 274.418 313.334C314.411 312.344 324.45 352.937 319.237 382.355C313.942 412.379 267.833 455.838 231.068 449.965C195.185 444.235 168.086 406.612 186.448 376.266Z" stroke="white"/>
<path fill-rule="evenodd" clip-rule="evenodd" d="M202.283 372.129C215.401 350.705 243.394 323.945 272.59 323.135C307.377 322.177 306.721 356.449 298.833 377.78C290.63 399.928 254.502 437.755 224.042 431.782C194.422 425.952 189.712 392.663 202.283 372.129Z" stroke="white"/>
<path fill-rule="evenodd" clip-rule="evenodd" d="M216.075 369.663C224.734 354.376 246.405 335.055 267.006 334.437C292.187 333.694 287.292 360.877 280.786 373.997C273.053 389.609 247.132 416.736 225.379 412.34C203.961 408.012 208.932 382.259 216.075 369.663Z" stroke="white"/>
</g>
</g>
</g>
<defs>
<linearGradient id="paint0_linear_1_493" x1="0" y1="0.0012207" x2="1920" y2="0.0012207" gradientUnits="userSpaceOnUse">
<stop stop-color="#0344A2"/>
<stop offset="1" stop-color="#195CBD"/>
</linearGradient>
</defs>
</svg>
